<?xml version="1.0" encoding="UTF-8" standalone="no"?>
<svg
   xmlns:dc="http://purl.org/dc/elements/1.1/"
   xmlns:cc="http://creativecommons.org/ns#"
   xmlns:rdf="http://www.w3.org/1999/02/22-rdf-syntax-ns#"
   xmlns:svg="http://www.w3.org/2000/svg"
   xmlns="http://www.w3.org/2000/svg"
   xmlns:sodipodi="http://sodipodi.sourceforge.net/DTD/sodipodi-0.dtd"
   xmlns:inkscape="http://www.inkscape.org/namespaces/inkscape"
   enable-background="new 0 0 32 32"
   id="Glyph"
   version="1.1"
   viewBox="0 0 32 32"
   xml:space="preserve"
   sodipodi:docname="3-dots-wh.svg"
   inkscape:version="0.92.5 (2060ec1f9f, 2020-04-08)"><metadata
     id="metadata3731"><rdf:RDF><cc:Work
         rdf:about=""><dc:format>image/svg+xml</dc:format><dc:type
           rdf:resource="http://purl.org/dc/dcmitype/StillImage" /><dc:title></dc:title></cc:Work></rdf:RDF></metadata><defs
     id="defs3729" /><sodipodi:namedview
     pagecolor="#ffffff"
     bordercolor="#666666"
     borderopacity="1"
     objecttolerance="10"
     gridtolerance="10"
     guidetolerance="10"
     inkscape:pageopacity="0"
     inkscape:pageshadow="2"
     inkscape:window-width="1366"
     inkscape:window-height="705"
     id="namedview3727"
     showgrid="false"
     inkscape:zoom="16.8125"
     inkscape:cx="16"
     inkscape:cy="16"
     inkscape:window-x="-8"
     inkscape:window-y="-8"
     inkscape:window-maximized="1"
     inkscape:current-layer="Glyph" /><path
     d="M16,13c-1.654,0-3,1.346-3,3s1.346,3,3,3s3-1.346,3-3S17.654,13,16,13z"
     id="XMLID_287_" /><path
     d="M6,13c-1.654,0-3,1.346-3,3s1.346,3,3,3s3-1.346,3-3S7.654,13,6,13z"
     id="XMLID_289_" /><path
     d="M26,13c-1.654,0-3,1.346-3,3s1.346,3,3,3s3-1.346,3-3S27.654,13,26,13z"
     id="XMLID_291_" /><path
     style="fill:#333333;stroke-width:0.05947955"
     d="M 5.1915377,18.855725 C 4.476488,18.663475 3.7103204,18.043807 3.3838375,17.393678 2.537335,15.708027 3.328602,13.769287 5.1042414,13.178392 c 0.441759,-0.147008 1.1946098,-0.173629 1.630139,-0.05764 1.1082576,0.295143 2.0199053,1.311209 2.1977481,2.449474 0.2197091,1.406224 -0.6859246,2.835251 -2.067189,3.261881 -0.4576561,0.141355 -1.1967013,0.151787 -1.6734018,0.02362 z"
     id="path3733"
     inkscape:connector-curvature="0" /><path
     style="fill:#333333;stroke-width:0.05947955"
     d="m 15.238662,18.865267 c -1.294302,-0.371813 -2.200744,-1.5412 -2.200744,-2.839148 0,-1.671489 1.302791,-2.973225 2.976319,-2.973907 0.850899,-3.47e-4 1.534495,0.295846 2.119262,0.91825 0.360964,0.384197 0.523166,0.645593 0.675688,1.088904 0.364471,1.059355 0.09735,2.182389 -0.71479,3.005144 -0.606632,0.614561 -1.262225,0.888738 -2.108167,0.881662 -0.263951,-0.0022 -0.600356,-0.03862 -0.747568,-0.08091 z"
     id="path3735"
     inkscape:connector-curvature="0" /><path
     style="fill:#666666;stroke-width:0.05947955"
     d="m 25.112268,18.814821 c -0.522806,-0.178894 -0.862724,-0.388755 -1.230289,-0.759565 -0.709818,-0.716083 -1.009537,-1.804169 -0.760421,-2.760591 0.349135,-1.34042 1.521564,-2.251408 2.889842,-2.245433 0.834978,0.0036 1.501937,0.285633 2.098949,0.887425 1.579689,1.592338 0.854416,4.277432 -1.32858,4.918636 -0.473229,0.139001 -1.196229,0.121474 -1.669501,-0.04047 z"
     id="path3737"
     inkscape:connector-curvature="0" /><path
     style="fill:#666666;stroke-width:0.05947955"
     d="m 15.863858,18.951256 c -0.02338,-0.03783 -0.140152,-0.06334 -0.2595,-0.05671 -0.119349,0.0066 -0.270529,-0.008 -0.335957,-0.0325 -0.32751,-0.122696 -0.902463,-0.405467 -0.995355,-0.489534 -0.05776,-0.05227 -0.105016,-0.07534 -0.105016,-0.05126 0,0.02408 -0.134425,-0.112297 -0.298722,-0.303049 -0.306325,-0.355651 -0.712431,-1.081433 -0.712431,-1.273238 0,-0.0591 -0.02163,-0.120825 -0.04807,-0.137164 -0.05391,-0.03332 -0.05637,-1.103876 -0.0028,-1.196645 0.01891,-0.03271 0.05135,-0.130602 0.07209,-0.217529 0.02074,-0.08693 0.09055,-0.281324 0.155136,-0.431992 0.06458,-0.150668 0.115943,-0.29068 0.114131,-0.311137 -0.0018,-0.02046 0.02068,-0.05357 0.04998,-0.07358 0.0293,-0.02001 0.203539,-0.20124 0.387197,-0.402724 0.183657,-0.201484 0.345136,-0.355122 0.358841,-0.341417 0.0137,0.0137 0.09438,-0.03945 0.179268,-0.118129 0.08489,-0.07868 0.169385,-0.128013 0.187761,-0.109637 0.01838,0.01838 0.03341,-0.0023 0.03341,-0.04589 0,-0.04362 0.01563,-0.06368 0.03473,-0.04457 0.0191,0.0191 0.183888,-0.01659 0.366189,-0.07931 0.182301,-0.06272 0.38972,-0.114038 0.460931,-0.114038 0.07121,0 0.146426,-0.01695 0.167144,-0.03767 0.0467,-0.0467 0.574385,-0.04631 0.695911,5.16e-4 0.04907,0.01891 0.183882,0.04328 0.299581,0.05415 0.115698,0.01088 0.242836,0.03985 0.282528,0.06438 0.03969,0.02453 0.07258,0.02295 0.07308,-0.0035 5.01e-4,-0.02647 0.02057,-0.02135 0.04461,0.01136 0.02403,0.03271 0.150762,0.112904 0.281617,0.178201 0.195503,0.09756 1.2053,0.978893 1.174415,1.025014 -0.005,0.0075 0.05324,0.154706 0.12947,0.327138 0.260444,0.589156 0.255706,0.56755 0.270917,1.235446 0.0056,0.245353 -0.02804,0.586617 -0.07472,0.758364 -0.04669,0.171748 -0.06873,0.312678 -0.04899,0.313179 0.01974,5e-4 0.006,0.02057 -0.03046,0.04461 -0.0365,0.02403 -0.122227,0.153918 -0.190509,0.288631 -0.166467,0.328417 -0.664199,0.864812 -1.009214,1.087607 -0.154212,0.09958 -0.313843,0.209586 -0.354735,0.24445 -0.04089,0.03486 -0.07435,0.04961 -0.07435,0.03278 0,-0.01684 -0.07117,-0.0036 -0.158152,0.02952 -0.08698,0.03307 -0.307801,0.08357 -0.490706,0.112227 -0.182905,0.02865 -0.389756,0.07018 -0.45967,0.09228 -0.07388,0.02335 -0.144917,0.01138 -0.169621,-0.02859 z"
     id="path3739"
     inkscape:connector-curvature="0" /><path
     style="fill:#666666;stroke-width:0.05947955"
     d="m 5.8408922,18.948295 c -0.049071,-0.03275 -0.1699021,-0.05363 -0.2685144,-0.0464 -0.098612,0.0072 -0.2141477,-0.0084 -0.2567454,-0.03472 -0.042598,-0.02633 -0.091834,-0.03348 -0.1094138,-0.0159 -0.01758,0.01758 -0.2031597,-0.05886 -0.4123996,-0.169862 C 4.5845792,18.570409 4.4133829,18.492688 4.4133829,18.5087 c 0,0.01601 -0.2117849,-0.17922 -0.470633,-0.433848 -0.2588482,-0.254627 -0.4674714,-0.476342 -0.4636073,-0.492699 0.00386,-0.01636 -0.036036,-0.11039 -0.088667,-0.208963 -0.188454,-0.352959 -0.3048481,-0.888974 -0.3130378,-1.441594 -0.00448,-0.302603 0.016349,-0.550186 0.046297,-0.550186 0.029948,0 0.040452,-0.05353 0.023343,-0.118959 -0.01711,-0.06543 -0.00398,-0.11896 0.029166,-0.11896 0.033151,0 0.044868,-0.04015 0.026038,-0.08922 -0.01883,-0.04907 -0.00831,-0.08922 0.023376,-0.08922 0.031687,0 0.057613,-0.03491 0.057613,-0.07758 0,-0.04267 0.079708,-0.20326 0.1771287,-0.356877 0.097421,-0.153617 0.1645678,-0.279303 0.1492155,-0.279303 -0.027195,0 0.5183339,-0.497482 0.8238753,-0.751314 0.083933,-0.06973 0.1672764,-0.112107 0.1852077,-0.09418 0.017931,0.01793 0.032603,-2.04e-4 0.032603,-0.0403 0,-0.0401 0.026766,-0.05636 0.05948,-0.03614 0.032714,0.02022 0.05948,0.01288 0.05948,-0.01632 0,-0.02919 0.033457,-0.05442 0.07435,-0.05605 0.075691,-0.003 0.5961987,-0.127767 0.7583643,-0.181738 0.1247213,-0.04151 0.6430375,-0.0337 0.8921933,0.01344 0.1144981,0.02167 0.2483271,0.04617 0.2973978,0.05445 0.049071,0.0083 0.2598913,0.102502 0.4684905,0.20938 0.713494,0.365565 1.3210137,1.080984 1.5514243,1.826967 0.1399192,0.453006 0.1628521,1.35843 0.039464,1.558077 -0.024252,0.03924 -0.028965,0.09583 -0.010473,0.125745 0.018491,0.02992 0.01338,0.06338 -0.01136,0.07435 -0.024739,0.01097 -0.1118948,0.166065 -0.1936792,0.34465 -0.1827542,0.399064 -1.1731433,1.426568 -1.2759477,1.323764 -0.017931,-0.01793 -0.032603,-0.0014 -0.032603,0.03679 0,0.03817 -0.020074,0.06455 -0.04461,0.05864 -0.024535,-0.0059 -0.1899882,0.03423 -0.3676729,0.08922 -0.1776849,0.05498 -0.4236888,0.09997 -0.5466756,0.09997 -0.1229868,0 -0.2401545,0.02677 -0.2603727,0.05948 -0.046581,0.07537 -0.1530296,0.07462 -0.267658,-0.0019 z"
     id="path3741"
     inkscape:connector-curvature="0" /><path
     style="fill:#ffffff;stroke-width:0.05947955"
     d="M 5.8991015,18.953237 C 5.8507295,18.927585 5.6557718,18.889232 5.4658622,18.868007 4.9417498,18.80943 4.4043537,18.507148 3.9020506,17.988372 3.2843626,17.350428 3.0638531,16.710671 3.1164241,15.709062 c 0.023763,-0.452743 0.054177,-0.561643 0.2827668,-1.012469 0.2118098,-0.417732 0.3294583,-0.567889 0.6797756,-0.867612 0.2329997,-0.199348 0.5106246,-0.404961 0.6169443,-0.456918 0.1063197,-0.05196 0.1933085,-0.117856 0.1933085,-0.146441 0,-0.02858 0.027788,-0.0348 0.061751,-0.01381 0.067904,0.04197 0.6520033,-0.09144 0.6520033,-0.14892 0,-0.01969 0.2314844,-0.01551 0.5144098,0.0093 0.2829254,0.02481 0.5349144,0.03243 0.5599756,0.01694 0.025061,-0.01549 0.054543,-0.0079 0.065516,0.01682 0.010972,0.02474 0.2207649,0.14457 0.4662052,0.26629 0.6547686,0.324718 1.2046243,0.904717 1.4909479,1.572683 0.066719,0.155649 0.1483386,0.498203 0.1813769,0.761231 0.1120057,0.891715 -0.1186144,1.535239 -0.8227407,2.295779 -0.5066698,0.547264 -0.7444872,0.68639 -1.4033755,0.820992 -0.313774,0.0641 -0.5924898,0.130137 -0.6193683,0.146749 -0.026879,0.01661 -0.088447,0.0092 -0.1368192,-0.01644 z"
     id="path22"
     inkscape:connector-curvature="0" /><path
     style="fill:#ffffff;stroke-width:0.05947955"
     d="M 15.537776,18.89062 C 15.34861,18.861785 14.980802,18.723762 14.65933,18.560974 14.027249,18.2409 13.739061,17.934913 13.3517,17.172586 c -0.209112,-0.411533 -0.224595,-0.47929 -0.244868,-1.071593 -0.02046,-0.597607 -0.01099,-0.659958 0.172659,-1.136898 0.223511,-0.580474 0.644649,-1.108582 1.139995,-1.429555 0.313354,-0.203047 1.205091,-0.47283 1.562884,-0.47283 0.301245,0 1.108088,0.181389 1.276488,0.286972 0.456561,0.286254 1.339437,1.09579 1.341166,1.229757 4.22e-4,0.03271 0.05749,0.206691 0.126813,0.386617 0.285959,0.742179 0.226903,1.755061 -0.137851,2.364302 -0.242582,0.405181 -0.775077,0.962713 -1.150169,1.204248 -0.460528,0.296551 -1.283618,0.451126 -1.901041,0.357014 z"
     id="path24"
     inkscape:connector-curvature="0" /><path
     style="fill:#ffffff;stroke-width:0.05947955"
     d="m 25.611134,18.891365 c -0.889281,-0.13205 -1.557464,-0.559133 -2.077566,-1.327919 -0.765166,-1.131025 -0.523516,-2.855668 0.527201,-3.76261 0.751156,-0.648372 1.95925,-0.899722 2.836609,-0.590172 0.140663,0.04963 0.268145,0.07784 0.283293,0.06269 0.01515,-0.01515 0.06132,0.0046 0.102599,0.04397 0.04128,0.03933 0.240204,0.190109 0.442053,0.335053 0.426189,0.306041 0.850362,0.840402 0.99875,1.258197 0.05712,0.160817 0.118088,0.292394 0.13549,0.292394 0.0174,0 0.04,0.266922 0.05021,0.593159 0.02856,0.912122 -0.209794,1.58103 -0.777129,2.180904 -0.683392,0.722586 -1.592579,1.052267 -2.521515,0.914328 z"
     id="path26"
     inkscape:connector-curvature="0" /></svg>