<?xml version="1.0" encoding="UTF-8" standalone="no"?>
<!-- Generator: Adobe Illustrator 16.0.0, SVG Export Plug-In . SVG Version: 6.00 Build 0)  -->

<svg
   xmlns:dc="http://purl.org/dc/elements/1.1/"
   xmlns:cc="http://creativecommons.org/ns#"
   xmlns:rdf="http://www.w3.org/1999/02/22-rdf-syntax-ns#"
   xmlns:svg="http://www.w3.org/2000/svg"
   xmlns="http://www.w3.org/2000/svg"
   xmlns:sodipodi="http://sodipodi.sourceforge.net/DTD/sodipodi-0.dtd"
   xmlns:inkscape="http://www.inkscape.org/namespaces/inkscape"
   version="1.1"
   id="Capa_1"
   x="0px"
   y="0px"
   width="612.08px"
   height="612.08px"
   viewBox="0 0 612.08 612.08"
   style="enable-background:new 0 0 612.08 612.08;"
   xml:space="preserve"
   sodipodi:docname="search-gr.svg"
   inkscape:version="0.92.5 (2060ec1f9f, 2020-04-08)"><metadata
   id="metadata90"><rdf:RDF><cc:Work
       rdf:about=""><dc:format>image/svg+xml</dc:format><dc:type
         rdf:resource="http://purl.org/dc/dcmitype/StillImage" /><dc:title></dc:title></cc:Work></rdf:RDF></metadata><defs
   id="defs88" /><sodipodi:namedview
   pagecolor="#ffffff"
   bordercolor="#666666"
   borderopacity="1"
   objecttolerance="10"
   gridtolerance="10"
   guidetolerance="10"
   inkscape:pageopacity="0"
   inkscape:pageshadow="2"
   inkscape:window-width="1366"
   inkscape:window-height="705"
   id="namedview86"
   showgrid="false"
   inkscape:zoom="0.87897004"
   inkscape:cx="306.04001"
   inkscape:cy="306.04001"
   inkscape:window-x="-8"
   inkscape:window-y="-8"
   inkscape:window-maximized="1"
   inkscape:current-layer="Capa_1" />
<g
   id="g53">
	<path
   d="M237.927,0C106.555,0,0.035,106.52,0.035,237.893c0,131.373,106.52,237.893,237.893,237.893   c50.518,0,97.368-15.757,135.879-42.597l0.028-0.028l176.432,176.433c3.274,3.274,8.48,3.358,11.839,0l47.551-47.551   c3.274-3.274,3.106-8.703-0.028-11.838L433.223,373.8c26.84-38.539,42.597-85.39,42.597-135.907C475.82,106.52,369.3,0,237.927,0z    M237.927,419.811c-100.475,0-181.918-81.443-181.918-181.918S137.453,55.975,237.927,55.975s181.918,81.443,181.918,181.918   S338.402,419.811,237.927,419.811z"
   id="path51" />
</g>
<g
   id="g55">
</g>
<g
   id="g57">
</g>
<g
   id="g59">
</g>
<g
   id="g61">
</g>
<g
   id="g63">
</g>
<g
   id="g65">
</g>
<g
   id="g67">
</g>
<g
   id="g69">
</g>
<g
   id="g71">
</g>
<g
   id="g73">
</g>
<g
   id="g75">
</g>
<g
   id="g77">
</g>
<g
   id="g79">
</g>
<g
   id="g81">
</g>
<g
   id="g83">
</g>
<path
   style="fill:#999999;stroke-width:1.13769519"
   d="m 463.11244,522.14451 -89.52816,-89.48044 -8.91349,5.71193 c -25.80625,16.53708 -57.09282,28.4285 -89.68986,34.08937 -17.34296,3.01182 -59.13608,2.72831 -76.79443,-0.52094 C 121.0622,457.75305 58.519032,410.71966 24.600734,341.40535 -22.953248,244.22562 2.3123607,125.72438 85.37955,56.339389 118.03534,29.062414 155.33138,11.707628 198.1865,3.8474807 c 18.11081,-3.32174227 58.3727,-3.59071672 76.65521,-0.5121046 50.65745,8.5302649 94.43775,30.9317799 130.446,66.7466479 35.51022,35.319496 58.62511,80.215036 67.06872,130.266096 3.33939,19.79495 3.33067,54.11706 -0.0191,75.08789 -4.87733,30.53388 -17.98588,64.67477 -34.90766,90.91619 l -5.0714,7.86446 89.40581,89.41116 c 78.35732,78.36204 89.4058,89.82923 89.4058,92.79407 0,2.89454 -3.74019,7.12306 -25.91009,29.29296 -22.07176,22.07176 -26.40704,25.91009 -29.26463,25.91009 -2.92696,0 -14.76619,-11.40558 -92.8827,-89.48043 z M 268.18868,417.7168 c 20.80266,-3.45054 41.91354,-11.00186 60.33601,-21.58206 45.6318,-26.20679 76.90302,-69.57873 88.2543,-122.40528 3.49962,-16.28647 3.78781,-51.57791 0.56208,-68.83055 C 405.12852,139.58077 358.49502,85.85031 296.00385,65.095866 257.65995,52.361162 218.40343,52.344803 180.1521,65.047585 125.55092,83.179951 83.377739,125.42485 64.99778,180.39772 c -12.225644,36.56585 -12.225644,78.42284 0,114.98869 22.813488,68.23317 81.75509,115.68004 154.06765,124.02151 11.01962,1.27115 36.56648,0.39166 49.12325,-1.69112 z"
   id="path92"
   inkscape:connector-curvature="0" /></svg>